<?xml version="1.0" encoding="us-ascii" standalone="no"?><svg xmlns="http://www.w3.org/2000/svg" xmlns:xlink="http://www.w3.org/1999/xlink" contentStyleType="text/css" height="631px" preserveAspectRatio="none" style="width:1917px;height:631px;background:#FFFFFF;" version="1.1" viewBox="0 0 1917 631" width="1917px" zoomAndPan="magnify"><defs/><g><!--class AppComponent--><g id="elem_AppComponent"><rect codeLine="2" fill="#F1F1F1" height="83.2188" id="AppComponent" rx="2.5" ry="2.5" style="stroke:#181818;stroke-width:0.5;" width="466" x="899.5" y="42.5"/><ellipse cx="1079.25" cy="58.5" fill="#ADD1B2" rx="11" ry="11" style="stroke:#181818;stroke-width:1.0;"/><path d="M1082.0156,54.375 Q1082.1719,54.1563 1082.3594,54.0469 Q1082.5469,53.9375 1082.7656,53.9375 Q1083.1406,53.9375 1083.375,54.2031 Q1083.6094,54.4531 1083.6094,55.0625 L1083.6094,56.5156 Q1083.6094,57.125 1083.375,57.3906 Q1083.1406,57.6563 1082.7656,57.6563 Q1082.4219,57.6563 1082.2188,57.4531 Q1082.0156,57.2656 1081.9063,56.75 Q1081.8594,56.3906 1081.6719,56.2031 Q1081.3438,55.8281 1080.7344,55.6094 Q1080.125,55.3906 1079.5,55.3906 Q1078.7344,55.3906 1078.0938,55.7188 Q1077.4688,56.0469 1076.9688,56.7969 Q1076.4844,57.5469 1076.4844,58.5781 L1076.4844,59.6719 Q1076.4844,60.9063 1077.375,61.7344 Q1078.2656,62.5469 1079.8594,62.5469 Q1080.7969,62.5469 1081.4531,62.2969 Q1081.8438,62.1406 1082.2656,61.7031 Q1082.5313,61.4375 1082.6719,61.3594 Q1082.8281,61.2813 1083.0313,61.2813 Q1083.3594,61.2813 1083.6094,61.5469 Q1083.875,61.7969 1083.875,62.1406 Q1083.875,62.4844 1083.5313,62.8906 Q1083.0313,63.4688 1082.2344,63.7969 Q1081.1563,64.25 1079.8594,64.25 Q1078.3438,64.25 1077.1406,63.625 Q1076.1563,63.125 1075.4688,62.0625 Q1074.7813,60.9844 1074.7813,59.7031 L1074.7813,58.5469 Q1074.7813,57.2188 1075.3906,56.0781 Q1076.0156,54.9219 1077.1094,54.3125 Q1078.2031,53.6875 1079.4375,53.6875 Q1080.1719,53.6875 1080.8125,53.8594 Q1081.4688,54.0156 1082.0156,54.375 Z " fill="#000000"/><text fill="#000000" font-family="sans-serif" font-size="14" lengthAdjust="spacing" textLength="98" x="1099.75" y="64.2285">AppComponent</text><line style="stroke:#181818;stroke-width:0.5;" x1="900.5" x2="1364.5" y1="74.5" y2="74.5"/><ellipse cx="910.5" cy="88.8047" fill="none" rx="3" ry="3" style="stroke:#038048;stroke-width:1.0;"/><text fill="#000000" font-family="sans-serif" font-size="14" lengthAdjust="spacing" textLength="335" x="919.5" y="93.0332">annualInvestmentResults: signal&lt;InvestmentResult[]&gt;</text><line style="stroke:#181818;stroke-width:0.5;" x1="900.5" x2="1364.5" y1="100.1094" y2="100.1094"/><ellipse cx="910.5" cy="114.4141" fill="#84BE84" rx="3" ry="3" style="stroke:#038048;stroke-width:1.0;"/><text fill="#000000" font-family="sans-serif" font-size="14" lengthAdjust="spacing" textLength="440" x="919.5" y="118.6426">onCalculateInvestmentResults(investmentInput: InvestmentInput): void</text></g><!--class UserInputComponent--><g id="elem_UserInputComponent"><rect codeLine="7" fill="#F1F1F1" height="100.8281" id="UserInputComponent" rx="2.5" ry="2.5" style="stroke:#181818;stroke-width:0.5;" width="410" x="268.5" y="239"/><ellipse cx="402.75" cy="255" fill="#ADD1B2" rx="11" ry="11" style="stroke:#181818;stroke-width:1.0;"/><path d="M405.5156,250.875 Q405.6719,250.6563 405.8594,250.5469 Q406.0469,250.4375 406.2656,250.4375 Q406.6406,250.4375 406.875,250.7031 Q407.1094,250.9531 407.1094,251.5625 L407.1094,253.0156 Q407.1094,253.625 406.875,253.8906 Q406.6406,254.1563 406.2656,254.1563 Q405.9219,254.1563 405.7188,253.9531 Q405.5156,253.7656 405.4063,253.25 Q405.3594,252.8906 405.1719,252.7031 Q404.8438,252.3281 404.2344,252.1094 Q403.625,251.8906 403,251.8906 Q402.2344,251.8906 401.5938,252.2188 Q400.9688,252.5469 400.4688,253.2969 Q399.9844,254.0469 399.9844,255.0781 L399.9844,256.1719 Q399.9844,257.4063 400.875,258.2344 Q401.7656,259.0469 403.3594,259.0469 Q404.2969,259.0469 404.9531,258.7969 Q405.3438,258.6406 405.7656,258.2031 Q406.0313,257.9375 406.1719,257.8594 Q406.3281,257.7813 406.5313,257.7813 Q406.8594,257.7813 407.1094,258.0469 Q407.375,258.2969 407.375,258.6406 Q407.375,258.9844 407.0313,259.3906 Q406.5313,259.9688 405.7344,260.2969 Q404.6563,260.75 403.3594,260.75 Q401.8438,260.75 400.6406,260.125 Q399.6563,259.625 398.9688,258.5625 Q398.2813,257.4844 398.2813,256.2031 L398.2813,255.0469 Q398.2813,253.7188 398.8906,252.5781 Q399.5156,251.4219 400.6094,250.8125 Q401.7031,250.1875 402.9375,250.1875 Q403.6719,250.1875 404.3125,250.3594 Q404.9688,250.5156 405.5156,250.875 Z " fill="#000000"/><text fill="#000000" font-family="sans-serif" font-size="14" lengthAdjust="spacing" textLength="133" x="423.25" y="260.7285">UserInputComponent</text><line style="stroke:#181818;stroke-width:0.5;" x1="269.5" x2="677.5" y1="271" y2="271"/><ellipse cx="279.5" cy="285.3047" fill="none" rx="3" ry="3" style="stroke:#038048;stroke-width:1.0;"/><text fill="#000000" font-family="sans-serif" font-size="14" lengthAdjust="spacing" textLength="259" x="288.5" y="289.5332">investmentInput: signal&lt;InvestmentInput&gt;</text><line style="stroke:#181818;stroke-width:0.5;" x1="269.5" x2="677.5" y1="296.6094" y2="296.6094"/><ellipse cx="279.5" cy="310.9141" fill="#84BE84" rx="3" ry="3" style="stroke:#038048;stroke-width:1.0;"/><text fill="#000000" font-family="sans-serif" font-size="14" lengthAdjust="spacing" textLength="384" x="288.5" y="315.1426">investmentInputChanged: output&lt;InvestmentInput&gt; (function)</text><ellipse cx="279.5" cy="328.5234" fill="#84BE84" rx="3" ry="3" style="stroke:#038048;stroke-width:1.0;"/><text fill="#000000" font-family="sans-serif" font-size="14" lengthAdjust="spacing" textLength="103" x="288.5" y="332.752">onSubmit(): void</text></g><!--class InvestmentResultsComponent--><g id="elem_InvestmentResultsComponent"><rect codeLine="13" fill="#F1F1F1" height="65.6094" id="InvestmentResultsComponent" rx="2.5" ry="2.5" style="stroke:#181818;stroke-width:0.5;" width="392" x="745.5" y="256.5"/><ellipse cx="843.25" cy="272.5" fill="#ADD1B2" rx="11" ry="11" style="stroke:#181818;stroke-width:1.0;"/><path d="M846.0156,268.375 Q846.1719,268.1563 846.3594,268.0469 Q846.5469,267.9375 846.7656,267.9375 Q847.1406,267.9375 847.375,268.2031 Q847.6094,268.4531 847.6094,269.0625 L847.6094,270.5156 Q847.6094,271.125 847.375,271.3906 Q847.1406,271.6563 846.7656,271.6563 Q846.4219,271.6563 846.2188,271.4531 Q846.0156,271.2656 845.9063,270.75 Q845.8594,270.3906 845.6719,270.2031 Q845.3438,269.8281 844.7344,269.6094 Q844.125,269.3906 843.5,269.3906 Q842.7344,269.3906 842.0938,269.7188 Q841.4688,270.0469 840.9688,270.7969 Q840.4844,271.5469 840.4844,272.5781 L840.4844,273.6719 Q840.4844,274.9063 841.375,275.7344 Q842.2656,276.5469 843.8594,276.5469 Q844.7969,276.5469 845.4531,276.2969 Q845.8438,276.1406 846.2656,275.7031 Q846.5313,275.4375 846.6719,275.3594 Q846.8281,275.2813 847.0313,275.2813 Q847.3594,275.2813 847.6094,275.5469 Q847.875,275.7969 847.875,276.1406 Q847.875,276.4844 847.5313,276.8906 Q847.0313,277.4688 846.2344,277.7969 Q845.1563,278.25 843.8594,278.25 Q842.3438,278.25 841.1406,277.625 Q840.1563,277.125 839.4688,276.0625 Q838.7813,274.9844 838.7813,273.7031 L838.7813,272.5469 Q838.7813,271.2188 839.3906,270.0781 Q840.0156,268.9219 841.1094,268.3125 Q842.2031,267.6875 843.4375,267.6875 Q844.1719,267.6875 844.8125,267.8594 Q845.4688,268.0156 846.0156,268.375 Z " fill="#000000"/><text fill="#000000" font-family="sans-serif" font-size="14" lengthAdjust="spacing" textLength="188" x="863.75" y="278.2285">InvestmentResultsComponent</text><line style="stroke:#181818;stroke-width:0.5;" x1="746.5" x2="1136.5" y1="288.5" y2="288.5"/><line style="stroke:#181818;stroke-width:0.5;" x1="746.5" x2="1136.5" y1="296.5" y2="296.5"/><text fill="#000000" font-family="sans-serif" font-size="14" lengthAdjust="spacing" textLength="380" x="751.5" y="315.0332">annualInvestmentResults: input&lt;InvestmentResult[]&gt; (signal)</text></g><!--class HeaderComponent--><g id="elem_HeaderComponent"><rect codeLine="17" fill="#F1F1F1" height="48" id="HeaderComponent" rx="2.5" ry="2.5" style="stroke:#181818;stroke-width:0.5;" width="151" x="1173" y="265.5"/><ellipse cx="1188" cy="281.5" fill="#ADD1B2" rx="11" ry="11" style="stroke:#181818;stroke-width:1.0;"/><path d="M1190.7656,277.375 Q1190.9219,277.1563 1191.1094,277.0469 Q1191.2969,276.9375 1191.5156,276.9375 Q1191.8906,276.9375 1192.125,277.2031 Q1192.3594,277.4531 1192.3594,278.0625 L1192.3594,279.5156 Q1192.3594,280.125 1192.125,280.3906 Q1191.8906,280.6563 1191.5156,280.6563 Q1191.1719,280.6563 1190.9688,280.4531 Q1190.7656,280.2656 1190.6563,279.75 Q1190.6094,279.3906 1190.4219,279.2031 Q1190.0938,278.8281 1189.4844,278.6094 Q1188.875,278.3906 1188.25,278.3906 Q1187.4844,278.3906 1186.8438,278.7188 Q1186.2188,279.0469 1185.7188,279.7969 Q1185.2344,280.5469 1185.2344,281.5781 L1185.2344,282.6719 Q1185.2344,283.9063 1186.125,284.7344 Q1187.0156,285.5469 1188.6094,285.5469 Q1189.5469,285.5469 1190.2031,285.2969 Q1190.5938,285.1406 1191.0156,284.7031 Q1191.2813,284.4375 1191.4219,284.3594 Q1191.5781,284.2813 1191.7813,284.2813 Q1192.1094,284.2813 1192.3594,284.5469 Q1192.625,284.7969 1192.625,285.1406 Q1192.625,285.4844 1192.2813,285.8906 Q1191.7813,286.4688 1190.9844,286.7969 Q1189.9063,287.25 1188.6094,287.25 Q1187.0938,287.25 1185.8906,286.625 Q1184.9063,286.125 1184.2188,285.0625 Q1183.5313,283.9844 1183.5313,282.7031 L1183.5313,281.5469 Q1183.5313,280.2188 1184.1406,279.0781 Q1184.7656,277.9219 1185.8594,277.3125 Q1186.9531,276.6875 1188.1875,276.6875 Q1188.9219,276.6875 1189.5625,276.8594 Q1190.2188,277.0156 1190.7656,277.375 Z " fill="#000000"/><text fill="#000000" font-family="sans-serif" font-size="14" lengthAdjust="spacing" textLength="119" x="1202" y="287.2285">HeaderComponent</text><line style="stroke:#181818;stroke-width:0.5;" x1="1174" x2="1323" y1="297.5" y2="297.5"/><line style="stroke:#181818;stroke-width:0.5;" x1="1174" x2="1323" y1="305.5" y2="305.5"/></g><!--class InvestmentInput--><g id="elem_InvestmentInput"><rect codeLine="20" fill="#F1F1F1" height="118.4375" id="InvestmentInput" rx="2.5" ry="2.5" style="stroke:#181818;stroke-width:0.5;" width="193" x="565" y="462"/><ellipse cx="607.9" cy="478" fill="#ADD1B2" rx="11" ry="11" style="stroke:#181818;stroke-width:1.0;"/><path d="M610.6656,473.875 Q610.8219,473.6563 611.0094,473.5469 Q611.1969,473.4375 611.4156,473.4375 Q611.7906,473.4375 612.025,473.7031 Q612.2594,473.9531 612.2594,474.5625 L612.2594,476.0156 Q612.2594,476.625 612.025,476.8906 Q611.7906,477.1563 611.4156,477.1563 Q611.0719,477.1563 610.8688,476.9531 Q610.6656,476.7656 610.5563,476.25 Q610.5094,475.8906 610.3219,475.7031 Q609.9938,475.3281 609.3844,475.1094 Q608.775,474.8906 608.15,474.8906 Q607.3844,474.8906 606.7438,475.2188 Q606.1188,475.5469 605.6188,476.2969 Q605.1344,477.0469 605.1344,478.0781 L605.1344,479.1719 Q605.1344,480.4063 606.025,481.2344 Q606.9156,482.0469 608.5094,482.0469 Q609.4469,482.0469 610.1031,481.7969 Q610.4938,481.6406 610.9156,481.2031 Q611.1813,480.9375 611.3219,480.8594 Q611.4781,480.7813 611.6813,480.7813 Q612.0094,480.7813 612.2594,481.0469 Q612.525,481.2969 612.525,481.6406 Q612.525,481.9844 612.1813,482.3906 Q611.6813,482.9688 610.8844,483.2969 Q609.8063,483.75 608.5094,483.75 Q606.9938,483.75 605.7906,483.125 Q604.8063,482.625 604.1188,481.5625 Q603.4313,480.4844 603.4313,479.2031 L603.4313,478.0469 Q603.4313,476.7188 604.0406,475.5781 Q604.6656,474.4219 605.7594,473.8125 Q606.8531,473.1875 608.0875,473.1875 Q608.8219,473.1875 609.4625,473.3594 Q610.1188,473.5156 610.6656,473.875 Z " fill="#000000"/><text fill="#000000" font-family="sans-serif" font-size="14" lengthAdjust="spacing" textLength="99" x="628.1" y="483.7285">InvestmentInput</text><line style="stroke:#181818;stroke-width:0.5;" x1="566" x2="757" y1="494" y2="494"/><ellipse cx="576" cy="508.3047" fill="none" rx="3" ry="3" style="stroke:#038048;stroke-width:1.0;"/><text fill="#000000" font-family="sans-serif" font-size="14" lengthAdjust="spacing" textLength="156" x="585" y="512.5332">initialInvestment: number</text><ellipse cx="576" cy="525.9141" fill="none" rx="3" ry="3" style="stroke:#038048;stroke-width:1.0;"/><text fill="#000000" font-family="sans-serif" font-size="14" lengthAdjust="spacing" textLength="167" x="585" y="530.1426">annualInvestment: number</text><ellipse cx="576" cy="543.5234" fill="none" rx="3" ry="3" style="stroke:#038048;stroke-width:1.0;"/><text fill="#000000" font-family="sans-serif" font-size="14" lengthAdjust="spacing" textLength="156" x="585" y="547.752">expectedReturn: number</text><ellipse cx="576" cy="561.1328" fill="none" rx="3" ry="3" style="stroke:#038048;stroke-width:1.0;"/><text fill="#000000" font-family="sans-serif" font-size="14" lengthAdjust="spacing" textLength="108" x="585" y="565.3613">duration: number</text><line style="stroke:#181818;stroke-width:0.5;" x1="566" x2="757" y1="572.4375" y2="572.4375"/></g><!--class InvestmentResult--><g id="elem_InvestmentResult"><rect codeLine="27" fill="#F1F1F1" height="153.6563" id="InvestmentResult" rx="2.5" ry="2.5" style="stroke:#181818;stroke-width:0.5;" width="210" x="1400.5" y="7"/><ellipse cx="1447.25" cy="23" fill="#ADD1B2" rx="11" ry="11" style="stroke:#181818;stroke-width:1.0;"/><path d="M1450.0156,18.875 Q1450.1719,18.6563 1450.3594,18.5469 Q1450.5469,18.4375 1450.7656,18.4375 Q1451.1406,18.4375 1451.375,18.7031 Q1451.6094,18.9531 1451.6094,19.5625 L1451.6094,21.0156 Q1451.6094,21.625 1451.375,21.8906 Q1451.1406,22.1563 1450.7656,22.1563 Q1450.4219,22.1563 1450.2188,21.9531 Q1450.0156,21.7656 1449.9063,21.25 Q1449.8594,20.8906 1449.6719,20.7031 Q1449.3438,20.3281 1448.7344,20.1094 Q1448.125,19.8906 1447.5,19.8906 Q1446.7344,19.8906 1446.0938,20.2188 Q1445.4688,20.5469 1444.9688,21.2969 Q1444.4844,22.0469 1444.4844,23.0781 L1444.4844,24.1719 Q1444.4844,25.4063 1445.375,26.2344 Q1446.2656,27.0469 1447.8594,27.0469 Q1448.7969,27.0469 1449.4531,26.7969 Q1449.8438,26.6406 1450.2656,26.2031 Q1450.5313,25.9375 1450.6719,25.8594 Q1450.8281,25.7813 1451.0313,25.7813 Q1451.3594,25.7813 1451.6094,26.0469 Q1451.875,26.2969 1451.875,26.6406 Q1451.875,26.9844 1451.5313,27.3906 Q1451.0313,27.9688 1450.2344,28.2969 Q1449.1563,28.75 1447.8594,28.75 Q1446.3438,28.75 1445.1406,28.125 Q1444.1563,27.625 1443.4688,26.5625 Q1442.7813,25.4844 1442.7813,24.2031 L1442.7813,23.0469 Q1442.7813,21.7188 1443.3906,20.5781 Q1444.0156,19.4219 1445.1094,18.8125 Q1446.2031,18.1875 1447.4375,18.1875 Q1448.1719,18.1875 1448.8125,18.3594 Q1449.4688,18.5156 1450.0156,18.875 Z " fill="#000000"/><text fill="#000000" font-family="sans-serif" font-size="14" lengthAdjust="spacing" textLength="108" x="1467.75" y="28.7285">InvestmentResult</text><line style="stroke:#181818;stroke-width:0.5;" x1="1401.5" x2="1609.5" y1="39" y2="39"/><ellipse cx="1411.5" cy="53.3047" fill="none" rx="3" ry="3" style="stroke:#038048;stroke-width:1.0;"/><text fill="#000000" font-family="sans-serif" font-size="14" lengthAdjust="spacing" textLength="84" x="1420.5" y="57.5332">year: number</text><ellipse cx="1411.5" cy="70.9141" fill="none" rx="3" ry="3" style="stroke:#038048;stroke-width:1.0;"/><text fill="#000000" font-family="sans-serif" font-size="14" lengthAdjust="spacing" textLength="103" x="1420.5" y="75.1426">interest: number</text><ellipse cx="1411.5" cy="88.5234" fill="none" rx="3" ry="3" style="stroke:#038048;stroke-width:1.0;"/><text fill="#000000" font-family="sans-serif" font-size="14" lengthAdjust="spacing" textLength="160" x="1420.5" y="92.752">valueEndOfYear: number</text><ellipse cx="1411.5" cy="106.1328" fill="none" rx="3" ry="3" style="stroke:#038048;stroke-width:1.0;"/><text fill="#000000" font-family="sans-serif" font-size="14" lengthAdjust="spacing" textLength="167" x="1420.5" y="110.3613">annualInvestment: number</text><ellipse cx="1411.5" cy="123.7422" fill="none" rx="3" ry="3" style="stroke:#038048;stroke-width:1.0;"/><text fill="#000000" font-family="sans-serif" font-size="14" lengthAdjust="spacing" textLength="130" x="1420.5" y="127.9707">totalInterest: number</text><ellipse cx="1411.5" cy="141.3516" fill="none" rx="3" ry="3" style="stroke:#038048;stroke-width:1.0;"/><text fill="#000000" font-family="sans-serif" font-size="14" lengthAdjust="spacing" textLength="184" x="1420.5" y="145.5801">totalAmountInvested: number</text><line style="stroke:#181818;stroke-width:0.5;" x1="1401.5" x2="1609.5" y1="152.6563" y2="152.6563"/></g><!--class AppComponentTemplate--><g id="elem_AppComponentTemplate"><rect codeLine="36" fill="#F1F1F1" height="100.8281" id="AppComponentTemplate" rx="2.5" ry="2.5" style="stroke:#181818;stroke-width:0.5;" width="551" x="1359" y="239"/><ellipse cx="1566.25" cy="255" fill="#ADD1B2" rx="11" ry="11" style="stroke:#181818;stroke-width:1.0;"/><path d="M1569.0156,250.875 Q1569.1719,250.6563 1569.3594,250.5469 Q1569.5469,250.4375 1569.7656,250.4375 Q1570.1406,250.4375 1570.375,250.7031 Q1570.6094,250.9531 1570.6094,251.5625 L1570.6094,253.0156 Q1570.6094,253.625 1570.375,253.8906 Q1570.1406,254.1563 1569.7656,254.1563 Q1569.4219,254.1563 1569.2188,253.9531 Q1569.0156,253.7656 1568.9063,253.25 Q1568.8594,252.8906 1568.6719,252.7031 Q1568.3438,252.3281 1567.7344,252.1094 Q1567.125,251.8906 1566.5,251.8906 Q1565.7344,251.8906 1565.0938,252.2188 Q1564.4688,252.5469 1563.9688,253.2969 Q1563.4844,254.0469 1563.4844,255.0781 L1563.4844,256.1719 Q1563.4844,257.4063 1564.375,258.2344 Q1565.2656,259.0469 1566.8594,259.0469 Q1567.7969,259.0469 1568.4531,258.7969 Q1568.8438,258.6406 1569.2656,258.2031 Q1569.5313,257.9375 1569.6719,257.8594 Q1569.8281,257.7813 1570.0313,257.7813 Q1570.3594,257.7813 1570.6094,258.0469 Q1570.875,258.2969 1570.875,258.6406 Q1570.875,258.9844 1570.5313,259.3906 Q1570.0313,259.9688 1569.2344,260.2969 Q1568.1563,260.75 1566.8594,260.75 Q1565.3438,260.75 1564.1406,260.125 Q1563.1563,259.625 1562.4688,258.5625 Q1561.7813,257.4844 1561.7813,256.2031 L1561.7813,255.0469 Q1561.7813,253.7188 1562.3906,252.5781 Q1563.0156,251.4219 1564.1094,250.8125 Q1565.2031,250.1875 1566.4375,250.1875 Q1567.1719,250.1875 1567.8125,250.3594 Q1568.4688,250.5156 1569.0156,250.875 Z " fill="#000000"/><text fill="#000000" font-family="sans-serif" font-size="14" lengthAdjust="spacing" textLength="128" x="1586.75" y="260.7285">app.component.html</text><line style="stroke:#181818;stroke-width:0.5;" x1="1360" x2="1909" y1="271" y2="271"/><ellipse cx="1370" cy="285.3047" fill="none" rx="3" ry="3" style="stroke:#038048;stroke-width:1.0;"/><text fill="#000000" font-family="sans-serif" font-size="14" lengthAdjust="spacing" textLength="74" x="1379" y="289.5332">app-header</text><line style="stroke:#181818;stroke-width:0.5;" x1="1360" x2="1909" y1="296.6094" y2="296.6094"/><ellipse cx="1370" cy="310.9141" fill="#84BE84" rx="3" ry="3" style="stroke:#038048;stroke-width:1.0;"/><text fill="#000000" font-family="sans-serif" font-size="14" lengthAdjust="spacing" textLength="525" x="1379" y="315.1426">app-user-input (investmentInputChanged)="onCalculateInvestmentResults($event)"</text><ellipse cx="1370" cy="328.5234" fill="#84BE84" rx="3" ry="3" style="stroke:#038048;stroke-width:1.0;"/><text fill="#000000" font-family="sans-serif" font-size="14" lengthAdjust="spacing" textLength="500" x="1379" y="332.752">app-investment-results [annualInvestmentResults]="annualInvestmentResults()"</text></g><!--class UserInputComponentTemplate--><g id="elem_UserInputComponentTemplate"><rect codeLine="42" fill="#F1F1F1" height="153.6563" id="UserInputComponentTemplate" rx="2.5" ry="2.5" style="stroke:#181818;stroke-width:0.5;" width="375" x="7" y="444"/><ellipse cx="106.25" cy="460" fill="#ADD1B2" rx="11" ry="11" style="stroke:#181818;stroke-width:1.0;"/><path d="M109.0156,455.875 Q109.1719,455.6563 109.3594,455.5469 Q109.5469,455.4375 109.7656,455.4375 Q110.1406,455.4375 110.375,455.7031 Q110.6094,455.9531 110.6094,456.5625 L110.6094,458.0156 Q110.6094,458.625 110.375,458.8906 Q110.1406,459.1563 109.7656,459.1563 Q109.4219,459.1563 109.2188,458.9531 Q109.0156,458.7656 108.9063,458.25 Q108.8594,457.8906 108.6719,457.7031 Q108.3438,457.3281 107.7344,457.1094 Q107.125,456.8906 106.5,456.8906 Q105.7344,456.8906 105.0938,457.2188 Q104.4688,457.5469 103.9688,458.2969 Q103.4844,459.0469 103.4844,460.0781 L103.4844,461.1719 Q103.4844,462.4063 104.375,463.2344 Q105.2656,464.0469 106.8594,464.0469 Q107.7969,464.0469 108.4531,463.7969 Q108.8438,463.6406 109.2656,463.2031 Q109.5313,462.9375 109.6719,462.8594 Q109.8281,462.7813 110.0313,462.7813 Q110.3594,462.7813 110.6094,463.0469 Q110.875,463.2969 110.875,463.6406 Q110.875,463.9844 110.5313,464.3906 Q110.0313,464.9688 109.2344,465.2969 Q108.1563,465.75 106.8594,465.75 Q105.3438,465.75 104.1406,465.125 Q103.1563,464.625 102.4688,463.5625 Q101.7813,462.4844 101.7813,461.2031 L101.7813,460.0469 Q101.7813,458.7188 102.3906,457.5781 Q103.0156,456.4219 104.1094,455.8125 Q105.2031,455.1875 106.4375,455.1875 Q107.1719,455.1875 107.8125,455.3594 Q108.4688,455.5156 109.0156,455.875 Z " fill="#000000"/><text fill="#000000" font-family="sans-serif" font-size="14" lengthAdjust="spacing" textLength="168" x="126.75" y="465.7285">user-input.component.html</text><line style="stroke:#181818;stroke-width:0.5;" x1="8" x2="381" y1="476" y2="476"/><ellipse cx="18" cy="490.3047" fill="none" rx="3" ry="3" style="stroke:#038048;stroke-width:1.0;"/><text fill="#000000" font-family="sans-serif" font-size="14" lengthAdjust="spacing" textLength="130" x="27" y="494.5332">button type="submit"</text><line style="stroke:#181818;stroke-width:0.5;" x1="8" x2="381" y1="501.6094" y2="501.6094"/><ellipse cx="18" cy="515.9141" fill="#84BE84" rx="3" ry="3" style="stroke:#038048;stroke-width:1.0;"/><text fill="#000000" font-family="sans-serif" font-size="14" lengthAdjust="spacing" textLength="188" x="27" y="520.1426">form (ngSubmit)="onSubmit()"</text><ellipse cx="18" cy="533.5234" fill="#84BE84" rx="3" ry="3" style="stroke:#038048;stroke-width:1.0;"/><text fill="#000000" font-family="sans-serif" font-size="14" lengthAdjust="spacing" textLength="338" x="27" y="537.752">input [(ngModel)]="investmentInput().initialInvestment"</text><ellipse cx="18" cy="551.1328" fill="#84BE84" rx="3" ry="3" style="stroke:#038048;stroke-width:1.0;"/><text fill="#000000" font-family="sans-serif" font-size="14" lengthAdjust="spacing" textLength="349" x="27" y="555.3613">input [(ngModel)]="investmentInput().annualInvestment"</text><ellipse cx="18" cy="568.7422" fill="#84BE84" rx="3" ry="3" style="stroke:#038048;stroke-width:1.0;"/><text fill="#000000" font-family="sans-serif" font-size="14" lengthAdjust="spacing" textLength="338" x="27" y="572.9707">input [(ngModel)]="investmentInput().expectedReturn"</text><ellipse cx="18" cy="586.3516" fill="#84BE84" rx="3" ry="3" style="stroke:#038048;stroke-width:1.0;"/><text fill="#000000" font-family="sans-serif" font-size="14" lengthAdjust="spacing" textLength="290" x="27" y="590.5801">input [(ngModel)]="investmentInput().duration"</text></g><!--class InvestmentResultsComponentTemplate--><g id="elem_InvestmentResultsComponentTemplate"><rect codeLine="51" fill="#F1F1F1" height="206.4844" id="InvestmentResultsComponentTemplate" rx="2.5" ry="2.5" style="stroke:#181818;stroke-width:0.5;" width="361" x="793" y="418"/><ellipse cx="859.75" cy="434" fill="#ADD1B2" rx="11" ry="11" style="stroke:#181818;stroke-width:1.0;"/><path d="M862.5156,429.875 Q862.6719,429.6563 862.8594,429.5469 Q863.0469,429.4375 863.2656,429.4375 Q863.6406,429.4375 863.875,429.7031 Q864.1094,429.9531 864.1094,430.5625 L864.1094,432.0156 Q864.1094,432.625 863.875,432.8906 Q863.6406,433.1563 863.2656,433.1563 Q862.9219,433.1563 862.7188,432.9531 Q862.5156,432.7656 862.4063,432.25 Q862.3594,431.8906 862.1719,431.7031 Q861.8438,431.3281 861.2344,431.1094 Q860.625,430.8906 860,430.8906 Q859.2344,430.8906 858.5938,431.2188 Q857.9688,431.5469 857.4688,432.2969 Q856.9844,433.0469 856.9844,434.0781 L856.9844,435.1719 Q856.9844,436.4063 857.875,437.2344 Q858.7656,438.0469 860.3594,438.0469 Q861.2969,438.0469 861.9531,437.7969 Q862.3438,437.6406 862.7656,437.2031 Q863.0313,436.9375 863.1719,436.8594 Q863.3281,436.7813 863.5313,436.7813 Q863.8594,436.7813 864.1094,437.0469 Q864.375,437.2969 864.375,437.6406 Q864.375,437.9844 864.0313,438.3906 Q863.5313,438.9688 862.7344,439.2969 Q861.6563,439.75 860.3594,439.75 Q858.8438,439.75 857.6406,439.125 Q856.6563,438.625 855.9688,437.5625 Q855.2813,436.4844 855.2813,435.2031 L855.2813,434.0469 Q855.2813,432.7188 855.8906,431.5781 Q856.5156,430.4219 857.6094,429.8125 Q858.7031,429.1875 859.9375,429.1875 Q860.6719,429.1875 861.3125,429.3594 Q861.9688,429.5156 862.5156,429.875 Z " fill="#000000"/><text fill="#000000" font-family="sans-serif" font-size="14" lengthAdjust="spacing" textLength="219" x="880.25" y="439.7285">investment-results.component.html</text><line style="stroke:#181818;stroke-width:0.5;" x1="794" x2="1153" y1="450" y2="450"/><ellipse cx="804" cy="464.3047" fill="none" rx="3" ry="3" style="stroke:#038048;stroke-width:1.0;"/><text fill="#000000" font-family="sans-serif" font-size="14" lengthAdjust="spacing" textLength="31" x="813" y="468.5332">table</text><ellipse cx="804" cy="481.9141" fill="none" rx="3" ry="3" style="stroke:#038048;stroke-width:1.0;"/><text fill="#000000" font-family="sans-serif" font-size="14" lengthAdjust="spacing" textLength="36" x="813" y="486.1426">thead</text><ellipse cx="804" cy="499.5234" fill="none" rx="3" ry="3" style="stroke:#038048;stroke-width:1.0;"/><text fill="#000000" font-family="sans-serif" font-size="14" lengthAdjust="spacing" textLength="104" x="813" y="503.752">td {{ data.year }}</text><ellipse cx="804" cy="517.1328" fill="none" rx="3" ry="3" style="stroke:#038048;stroke-width:1.0;"/><text fill="#000000" font-family="sans-serif" font-size="14" lengthAdjust="spacing" textLength="235" x="813" y="521.3613">td {{ data.interest | currency : 'EUR' }}</text><ellipse cx="804" cy="534.7422" fill="none" rx="3" ry="3" style="stroke:#038048;stroke-width:1.0;"/><text fill="#000000" font-family="sans-serif" font-size="14" lengthAdjust="spacing" textLength="292" x="813" y="538.9707">td {{ data.valueEndOfYear | currency : 'EUR' }}</text><ellipse cx="804" cy="552.3516" fill="none" rx="3" ry="3" style="stroke:#038048;stroke-width:1.0;"/><text fill="#000000" font-family="sans-serif" font-size="14" lengthAdjust="spacing" textLength="299" x="813" y="556.5801">td {{ data.annualInvestment | currency : 'EUR' }}</text><ellipse cx="804" cy="569.9609" fill="none" rx="3" ry="3" style="stroke:#038048;stroke-width:1.0;"/><text fill="#000000" font-family="sans-serif" font-size="14" lengthAdjust="spacing" textLength="262" x="813" y="574.1895">td {{ data.totalInterest | currency : 'EUR' }}</text><ellipse cx="804" cy="587.5703" fill="none" rx="3" ry="3" style="stroke:#038048;stroke-width:1.0;"/><text fill="#000000" font-family="sans-serif" font-size="14" lengthAdjust="spacing" textLength="316" x="813" y="591.7988">td {{ data.totalAmountInvested | currency : 'EUR' }}</text><line style="stroke:#181818;stroke-width:0.5;" x1="794" x2="1153" y1="598.875" y2="598.875"/><ellipse cx="804" cy="613.1797" fill="#84BE84" rx="3" ry="3" style="stroke:#038048;stroke-width:1.0;"/><text fill="#000000" font-family="sans-serif" font-size="14" lengthAdjust="spacing" textLength="335" x="813" y="617.4082">tbody *ngFor="let data of annualInvestmentResults()"</text></g><!--class HeaderComponentTemplate--><g id="elem_HeaderComponentTemplate"><rect codeLine="63" fill="#F1F1F1" height="100.8281" id="HeaderComponentTemplate" rx="2.5" ry="2.5" style="stroke:#181818;stroke-width:0.5;" width="283" x="1189" y="470.5"/><ellipse cx="1251.75" cy="486.5" fill="#ADD1B2" rx="11" ry="11" style="stroke:#181818;stroke-width:1.0;"/><path d="M1254.5156,482.375 Q1254.6719,482.1563 1254.8594,482.0469 Q1255.0469,481.9375 1255.2656,481.9375 Q1255.6406,481.9375 1255.875,482.2031 Q1256.1094,482.4531 1256.1094,483.0625 L1256.1094,484.5156 Q1256.1094,485.125 1255.875,485.3906 Q1255.6406,485.6563 1255.2656,485.6563 Q1254.9219,485.6563 1254.7188,485.4531 Q1254.5156,485.2656 1254.4063,484.75 Q1254.3594,484.3906 1254.1719,484.2031 Q1253.8438,483.8281 1253.2344,483.6094 Q1252.625,483.3906 1252,483.3906 Q1251.2344,483.3906 1250.5938,483.7188 Q1249.9688,484.0469 1249.4688,484.7969 Q1248.9844,485.5469 1248.9844,486.5781 L1248.9844,487.6719 Q1248.9844,488.9063 1249.875,489.7344 Q1250.7656,490.5469 1252.3594,490.5469 Q1253.2969,490.5469 1253.9531,490.2969 Q1254.3438,490.1406 1254.7656,489.7031 Q1255.0313,489.4375 1255.1719,489.3594 Q1255.3281,489.2813 1255.5313,489.2813 Q1255.8594,489.2813 1256.1094,489.5469 Q1256.375,489.7969 1256.375,490.1406 Q1256.375,490.4844 1256.0313,490.8906 Q1255.5313,491.4688 1254.7344,491.7969 Q1253.6563,492.25 1252.3594,492.25 Q1250.8438,492.25 1249.6406,491.625 Q1248.6563,491.125 1247.9688,490.0625 Q1247.2813,488.9844 1247.2813,487.7031 L1247.2813,486.5469 Q1247.2813,485.2188 1247.8906,484.0781 Q1248.5156,482.9219 1249.6094,482.3125 Q1250.7031,481.6875 1251.9375,481.6875 Q1252.6719,481.6875 1253.3125,481.8594 Q1253.9688,482.0156 1254.5156,482.375 Z " fill="#000000"/><text fill="#000000" font-family="sans-serif" font-size="14" lengthAdjust="spacing" textLength="149" x="1272.25" y="492.2285">header.component.html</text><line style="stroke:#181818;stroke-width:0.5;" x1="1190" x2="1471" y1="502.5" y2="502.5"/><ellipse cx="1200" cy="516.8047" fill="none" rx="3" ry="3" style="stroke:#038048;stroke-width:1.0;"/><text fill="#000000" font-family="sans-serif" font-size="14" lengthAdjust="spacing" textLength="45" x="1209" y="521.0332">header</text><ellipse cx="1200" cy="534.4141" fill="none" rx="3" ry="3" style="stroke:#038048;stroke-width:1.0;"/><text fill="#000000" font-family="sans-serif" font-size="14" lengthAdjust="spacing" textLength="257" x="1209" y="538.6426">img src="investment-calculator-logo.png"</text><ellipse cx="1200" cy="552.0234" fill="none" rx="3" ry="3" style="stroke:#038048;stroke-width:1.0;"/><text fill="#000000" font-family="sans-serif" font-size="14" lengthAdjust="spacing" textLength="156" x="1209" y="556.252">h1 Investment Calculator</text><line style="stroke:#181818;stroke-width:0.5;" x1="1190" x2="1471" y1="563.3281" y2="563.3281"/></g><!--class EventEmitter--><g id="elem_EventEmitter"><rect fill="#F1F1F1" height="48" id="EventEmitter" rx="2.5" ry="2.5" style="stroke:#181818;stroke-width:0.5;" width="112" x="417.5" y="497"/><ellipse cx="432.5" cy="513" fill="#ADD1B2" rx="11" ry="11" style="stroke:#181818;stroke-width:1.0;"/><path d="M435.2656,508.875 Q435.4219,508.6563 435.6094,508.5469 Q435.7969,508.4375 436.0156,508.4375 Q436.3906,508.4375 436.625,508.7031 Q436.8594,508.9531 436.8594,509.5625 L436.8594,511.0156 Q436.8594,511.625 436.625,511.8906 Q436.3906,512.1563 436.0156,512.1563 Q435.6719,512.1563 435.4688,511.9531 Q435.2656,511.7656 435.1563,511.25 Q435.1094,510.8906 434.9219,510.7031 Q434.5938,510.3281 433.9844,510.1094 Q433.375,509.8906 432.75,509.8906 Q431.9844,509.8906 431.3438,510.2188 Q430.7188,510.5469 430.2188,511.2969 Q429.7344,512.0469 429.7344,513.0781 L429.7344,514.1719 Q429.7344,515.4063 430.625,516.2344 Q431.5156,517.0469 433.1094,517.0469 Q434.0469,517.0469 434.7031,516.7969 Q435.0938,516.6406 435.5156,516.2031 Q435.7813,515.9375 435.9219,515.8594 Q436.0781,515.7813 436.2813,515.7813 Q436.6094,515.7813 436.8594,516.0469 Q437.125,516.2969 437.125,516.6406 Q437.125,516.9844 436.7813,517.3906 Q436.2813,517.9688 435.4844,518.2969 Q434.4063,518.75 433.1094,518.75 Q431.5938,518.75 430.3906,518.125 Q429.4063,517.625 428.7188,516.5625 Q428.0313,515.4844 428.0313,514.2031 L428.0313,513.0469 Q428.0313,511.7188 428.6406,510.5781 Q429.2656,509.4219 430.3594,508.8125 Q431.4531,508.1875 432.6875,508.1875 Q433.4219,508.1875 434.0625,508.3594 Q434.7188,508.5156 435.2656,508.875 Z " fill="#000000"/><text fill="#000000" font-family="sans-serif" font-size="14" lengthAdjust="spacing" textLength="80" x="446.5" y="518.7285">EventEmitter</text><line style="stroke:#181818;stroke-width:0.5;" x1="418.5" x2="528.5" y1="529" y2="529"/><line style="stroke:#181818;stroke-width:0.5;" x1="418.5" x2="528.5" y1="537" y2="537"/></g><!--link AppComponent to AppComponentTemplate--><g id="link_AppComponent_AppComponentTemplate"><path codeLine="69" d="M1232.58,125.57 C1312.95,158.15 1420.6095,201.796 1506.4095,236.576 " fill="none" id="AppComponent-to-AppComponentTemplate" style="stroke:#181818;stroke-width:1.0;"/><polygon fill="#181818" points="1511.97,238.83,1505.1319,231.742,1507.3362,236.9516,1502.1265,239.156,1511.97,238.83" style="stroke:#181818;stroke-width:1.0;"/><text fill="#000000" font-family="sans-serif" font-size="13" lengthAdjust="spacing" textLength="82" x="1429.5" y="205.4951">uses template</text></g><!--link UserInputComponent to UserInputComponentTemplate--><g id="link_UserInputComponent_UserInputComponentTemplate"><path codeLine="70" d="M413.3,340.02 C376.46,370.32 333.1934,405.9079 291.6134,440.1179 " fill="none" id="UserInputComponent-to-UserInputComponentTemplate" style="stroke:#181818;stroke-width:1.0;"/><polygon fill="#181818" points="286.98,443.93,296.4714,441.3008,290.8411,440.7533,291.3886,435.123,286.98,443.93" style="stroke:#181818;stroke-width:1.0;"/><text fill="#000000" font-family="sans-serif" font-size="13" lengthAdjust="spacing" textLength="82" x="376.5" y="384.4951">uses template</text></g><!--link InvestmentResultsComponent to InvestmentResultsComponentTemplate--><g id="link_InvestmentResultsComponent_InvestmentResultsComponentTemplate"><path codeLine="71" d="M946.02,322.89 C949.49,347.79 953.6502,377.6777 958.4402,411.9777 " fill="none" id="InvestmentResultsComponent-to-InvestmentResultsComponentTemplate" style="stroke:#181818;stroke-width:1.0;"/><polygon fill="#181818" points="959.27,417.92,961.9868,408.4533,958.5785,412.9681,954.0637,409.5597,959.27,417.92" style="stroke:#181818;stroke-width:1.0;"/><text fill="#000000" font-family="sans-serif" font-size="13" lengthAdjust="spacing" textLength="82" x="956.5" y="384.4951">uses template</text></g><!--link HeaderComponent to HeaderComponentTemplate--><g id="link_HeaderComponent_HeaderComponentTemplate"><path codeLine="72" d="M1256.81,313.77 C1269.84,350.23 1293.3513,416.0298 1310.6613,464.4798 " fill="none" id="HeaderComponent-to-HeaderComponentTemplate" style="stroke:#181818;stroke-width:1.0;"/><polygon fill="#181818" points="1312.68,470.13,1313.4188,460.3089,1310.9978,465.4215,1305.8852,463.0005,1312.68,470.13" style="stroke:#181818;stroke-width:1.0;"/><text fill="#000000" font-family="sans-serif" font-size="13" lengthAdjust="spacing" textLength="82" x="1283.5" y="384.4951">uses template</text></g><!--link AppComponent to HeaderComponent--><g id="link_AppComponent_HeaderComponent"><path codeLine="74" d="M1155.7,125.69 C1179.56,167.56 1212.9391,226.1171 1232.2991,260.0871 " fill="none" id="AppComponent-to-HeaderComponent" style="stroke:#181818;stroke-width:1.0;"/><polygon fill="#181818" points="1235.27,265.3,1234.2889,255.5001,1232.7943,260.956,1227.3384,259.4613,1235.27,265.3" style="stroke:#181818;stroke-width:1.0;"/><text fill="#000000" font-family="sans-serif" font-size="13" lengthAdjust="spacing" textLength="43" x="1202.5" y="205.4951">imports</text></g><!--link AppComponent to UserInputComponent--><g id="link_AppComponent_UserInputComponent"><path codeLine="75" d="M1001.12,125.57 C895.51,158.18 752.4529,202.3597 639.7929,237.1497 " fill="none" id="AppComponent-to-UserInputComponent" style="stroke:#181818;stroke-width:1.0;"/><polygon fill="#181818" points="634.06,238.92,643.8395,240.0864,638.8374,237.4447,641.4791,232.4426,634.06,238.92" style="stroke:#181818;stroke-width:1.0;"/><text fill="#000000" font-family="sans-serif" font-size="13" lengthAdjust="spacing" textLength="43" x="784.5" y="205.4951">imports</text></g><!--link AppComponent to InvestmentResultsComponent--><g id="link_AppComponent_InvestmentResultsComponent"><path codeLine="76" d="M1094.31,125.69 C1058.27,164.08 1009.0763,216.5052 975.8863,251.8652 " fill="none" id="AppComponent-to-InvestmentResultsComponent" style="stroke:#181818;stroke-width:1.0;"/><polygon fill="#181818" points="971.78,256.24,980.8559,252.4154,975.2019,252.5944,975.0229,246.9404,971.78,256.24" style="stroke:#181818;stroke-width:1.0;"/><text fill="#000000" font-family="sans-serif" font-size="13" lengthAdjust="spacing" textLength="43" x="1032.5" y="205.4951">imports</text></g><!--link UserInputComponent to EventEmitter--><g id="link_UserInputComponent_EventEmitter"><path codeLine="77" d="M473.5,340.02 C473.5,388.51 473.5,454.27 473.5,490.8 " fill="none" id="UserInputComponent-to-EventEmitter" style="stroke:#181818;stroke-width:1.0;"/><polygon fill="#181818" points="473.5,496.8,477.5,487.8,473.5,491.8,469.5,487.8,473.5,496.8" style="stroke:#181818;stroke-width:1.0;"/></g><!--link InvestmentResultsComponent to InvestmentInput--><g id="link_InvestmentResultsComponent_InvestmentInput"><path codeLine="78" d="M897.81,322.65 C863.93,347.92 816.06,384.36 775.5,418 C758.74,431.9 745.4954,443.3636 729.1454,457.9636 " fill="none" id="InvestmentResultsComponent-to-InvestmentInput" style="stroke:#181818;stroke-width:1.0;"/><polygon fill="#181818" points="724.67,461.96,734.0473,458.949,728.3995,458.6297,728.7188,452.9819,724.67,461.96" style="stroke:#181818;stroke-width:1.0;"/></g><!--SRC=[ZLN1Yjim4BtxAmPJM7kB0xsQPc49ASsX5DBkeInxK6p5CTYIaANGaERVAybnR4csyKqQpHlDl9adPHLg6dXbR4DhHWac0gu1m6T4Y4JLZfnn8sfbtUD6Lg99eIaBWgglxidxnuk6KR91LIOh9B27ZSg7PKUO52diR4ESmfcMUN0BWioazTPWRawSvBn0NbB6RZ82ntbpGgJ0UGfK2hNrC10T9Sb4IKdS5lHB7kfIH5voNdrsafC4biI-zi4VH6qPSN_7Tunop8U1HwutUNV4bA8Stfe2aVK1yx6M3i_mNuOpWVCz5fAJuKakET9iF6oJ1BGfN33YGtn91ERARsWxeqhYBSb_7lyutdCv2YhqaH_E7BpML6ekD5AtryqsH8ojiex9rKdKLGZ87ltVk6PwTEyIO2mvcGPqEwdcCJ7zWsXyhE9rE2k1J_YiTd7OHUoZ9BnrWVU9oVbOXnCdaOhNrzadELQkBocxw2FbDKIaQAVUbDC986pRgQj_Lnu_Q8whM6NbC175AsyCbqFT4fSZxH5UZki6t20EKWXAG5mONeUDANp8hT-kCOwdNmQRQu4E5JOBFMPcSQ3v1Pv9yOtoTLXX0JaI2EWHPbglSJbShyPtfVK7jvjZxLG8_o2Jd6EINI25f-tR_ibtjkMv2EAcjmXa2NevmbRw1AxlMIlXiJuvhwlTd5xvPLr0mxFXx2JPNUAK9nKjw8gHmZJYz6NGVTWyl7G-rYUR92_ZJqyAIi0DYFi-6Fa3DNP6nsw4cOzAHremhMv4zrlIOQR8TB4-3MuqzKMg9HUDxpf2neptJE4zQeBVhNwdjqh-QZgNCsW21Vy1]--></g></svg>